<?xml version="1.0" encoding="UTF-8"?>
<svg id="Layer_1" xmlns="http://www.w3.org/2000/svg" version="1.1" viewBox="0 0 500 500">
  <!-- Generator: Adobe Illustrator 30.2.1, SVG Export Plug-In . SVG Version: 2.1.1 Build 1)  -->
  <defs>
    <style>
      .st0 {
        fill: #ffd541;
      }
    </style>
  </defs>
  <rect class="st0" x="-2.01" y="-2.33" width="504.95" height="504.95"/>
  <path d="M120.7,263c0-7.19.61-14.29,1.79-21.24-13.91-24.7-23.55-53.72-27.53-85.24h-.01c-.52-3.97-3.91-7.04-8.03-7.04h-.16s0,0,0,0h-30.11s-.06,0-.06,0c-4.48,0-8.11,3.63-8.11,8.11,0,.18.02.36.03.54,8.44,74.82,44.22,138.86,94.53,176.27-14.52-20.8-22.35-45.5-22.35-71.4M452.44,157.59c0-4.48-3.63-8.11-8.11-8.11h-88.49c-4.48,0-8.11,3.63-8.11,8.11v27.8c0,4.47,3.63,8.1,8.11,8.1h42.87c-22.26,80.97-82.31,138.99-152.91,138.99-38.38,0-69.49-31.11-69.49-69.49s31.11-69.5,69.49-69.5,69.5,31.12,69.5,69.5c0,19.69-8.19,37.47-21.36,50.11,14.2-6.15,27.7-15.05,40.14-26.56,10.05-9.29,19.17-20.1,27.22-32.2-4.42-59.93-54.44-107.18-115.5-107.18s-115.83,51.86-115.83,115.83,51.86,115.83,115.83,115.83c105.63,0,192.89-96.01,206.6-220.53.02-.23.03-.47.03-.7"/>
</svg>